<?xml version="1.0" encoding="UTF-8" standalone="no"?><!DOCTYPE svg PUBLIC "-//W3C//DTD SVG 1.1//EN" "http://www.w3.org/Graphics/SVG/1.1/DTD/svg11.dtd"><svg width="100%" height="100%" viewBox="0 0 493 493" version="1.1" xmlns="http://www.w3.org/2000/svg" xmlns:xlink="http://www.w3.org/1999/xlink" xml:space="preserve" xmlns:serif="http://www.serif.com/" style="fill-rule:evenodd;clip-rule:evenodd;stroke-linecap:round;stroke-linejoin:round;stroke-miterlimit:1.5;"><path d="M444.915,135.216l-0,258.932c-0,8.359 -4.331,16.121 -11.445,20.51c-7.113,4.39 -15.993,4.78 -23.464,1.032l-94.958,-47.642c-2.201,-1.104 -4.629,-1.679 -7.091,-1.679l-198.888,-0c-33.55,-0 -60.788,-27.239 -60.788,-60.788l-0,-170.365c-0,-33.55 27.238,-60.788 60.788,-60.788l275.058,-0c33.55,-0 60.788,27.238 60.788,60.788Z" style="fill:#f79009;"/><path d="M165.582,213.078c3.887,-5.499 24.71,-28.027 -13.598,-38.988c-38.308,-10.962 -40.62,52.974 -35.067,57.291c5.553,4.317 -2.4,52.484 39.424,86.2c41.823,33.716 159.247,25.115 170.106,10.55c10.859,-14.566 49.607,-19.263 24.399,-84.622l-17.334,16.042l4.684,11.544c0,-0 -17.022,26.435 -62.054,30.447c-45.031,4.013 -69.441,-5.395 -69.441,-5.395c0,0 -35.549,-14.909 -21.315,-35.977l-13.718,-13.496c0,-0 -9.973,-28.098 -6.086,-33.596Z" style="fill:#e8e6dc;"/><g><path d="M178.987,104.144c-1.953,-0.124 -17.619,28.49 -13.775,71.146c4.596,8.52 7.263,17.041 8.307,25.561l-8.11,11.823c-0.648,-1.681 -11.992,58.6 85.626,65.484c108.729,7.667 119.118,-73.776 100.786,-105.239c2.859,0.677 0.502,-69.731 -17.45,-70.365c-8.843,-0.312 -46.195,25.699 -45.279,28.672c-22.15,-8.677 -42.764,-4.415 -65.835,-1.825c-9.368,-12.775 -21.187,-24.097 -44.27,-25.257Z" style="fill:#e8e6dc;stroke:#f5f4ed;stroke-width:1px;"/><path d="M184.035,260.413c-2.333,1.276 -11.787,33.974 56.169,40.967c0.588,-1.553 20.047,-19.456 36.268,-0.093c0,0 21.552,-4.438 27.156,-6.263c2.965,-0.964 6.41,-1.309 6.41,-1.309l-0.306,-21.204l-64.431,6.085c-22.784,-4.254 -43.322,-10.227 -61.266,-18.183Z" style="fill:#f79009;stroke:#f79009;stroke-width:1px;"/><g><path d="M165.178,176.257c-0,0 -2.013,-62.566 13.181,-71.68c13.692,-8.212 48.568,25.975 50.558,25.085c-0,-0 30.611,-8.075 59.2,0.151c0,-0 36.584,-31.197 47.733,-26.834c13.141,5.143 16.083,36.977 16.082,53.953c-0.001,4.97 -0.254,8.667 -0.577,10.048c-1.061,4.536 8.38,20.419 7.29,45.589c-0.465,10.723 -3.099,26.229 -19.202,40.841" style="fill:none;stroke:#15325b;stroke-width:6.25px;"/><path d="M339.331,253.615c-13.309,11.496 -33.653,18.05 -35.275,18.54c-10.262,3.105 -22.043,5.359 -36.446,5.724c-76.687,1.939 -101.649,-27.975 -103.108,-54.044c-0.095,-1.681 -0.091,-9.315 0.003,-10.955" style="fill:none;stroke:#15325b;stroke-width:6.25px;"/><path d="M134.187,199.975l-0.279,4.098c0,-0 -2.247,16.624 22.737,11.424c3.327,-0.693 8.915,-4.421 12.682,-8.064c2.65,-2.567 4.158,-6.091 4.188,-9.78c-0.059,-8.291 -2.932,-24.783 -25.575,-25.768c-32.525,-1.416 -32.888,36.544 -32.888,36.544c-0,-0 -1.611,90.369 54.729,115.418c83.745,37.232 231.026,15.832 180.445,-81.094" style="fill:none;stroke:#15325b;stroke-width:6.25px;"/><path d="M152.138,202.018l-0.216,14.248" style="fill:none;stroke:#15325b;stroke-width:6.25px;"/><path d="M185.432,260.024c-18.865,21.367 29.27,53.044 107.339,36.905c0.961,-0.199 7.398,-2.176 14.813,-4.475c10.629,-3.296 38.433,-16.477 25.706,-31.445" style="fill:none;stroke:#15325b;stroke-width:6.25px;"/><circle cx="258.595" cy="312.86" r="19.618" style="fill:#f79009;stroke:#15325b;stroke-width:6.25px;"/><g><path d="M87.383,186.603l14.491,-0.172" style="fill:none;stroke:#15325b;stroke-width:6.25px;"/><path d="M92.989,161.08l16.615,8.163" style="fill:none;stroke:#15325b;stroke-width:6.25px;"/><path d="M109.694,142.447l13.244,14.61" style="fill:none;stroke:#15325b;stroke-width:6.25px;"/></g><g id="Face-Internal" serif:id="Face Internal"><path d="M194.531,214.904l15.333,3.321" style="fill:none;stroke:#15325b;stroke-width:6.25px;"/><path d="M322.542,215.048l-15.334,3.321" style="fill:none;stroke:#15325b;stroke-width:6.25px;"/><path d="M195.345,236.946l14.215,-4.149" style="fill:none;stroke:#15325b;stroke-width:6.25px;"/><path d="M321.727,237.09l-14.214,-4.149" style="fill:none;stroke:#15325b;stroke-width:6.25px;"/><path d="M258.473,212.251c0,-0 0.291,17.692 -10.404,18.78c-8.122,0.827 -12.055,-6.827 -12.055,-6.827" style="fill:none;stroke:#15325b;stroke-width:6.25px;"/><path d="M259.274,212.258c0,-0 -0.558,17.677 10.268,18.856c8.221,0.896 11.771,-6.785 11.771,-6.785" style="fill:none;stroke:#15325b;stroke-width:6.25px;"/><path d="M250.847,203.688c1.761,2.835 4.889,4.529 8.225,4.453c3.337,-0.075 6.385,-1.909 8.016,-4.82c0.001,-0 0.001,-0 0.001,-0c0.105,-0.188 0.103,-0.418 -0.004,-0.604c-0.107,-0.186 -0.304,-0.3 -0.515,-0.297c-3.082,0.04 -12.208,0.158 -15.324,0.199c-0.213,0.003 -0.409,0.123 -0.51,0.315c-0.102,0.192 -0.094,0.425 0.021,0.609c0.029,0.047 0.059,0.095 0.09,0.145Z" style="fill:#1e447a;stroke:#15325b;stroke-width:6.25px;"/><path d="M188.298,130.463c5.997,0.821 12.172,5.073 15.615,9.34c0.018,0.01 0.028,0.03 0.028,0.051c-0,0.021 -0.012,0.041 -0.03,0.053c-6.07,1.813 -12.314,5.913 -18.71,12.012c-0.021,0.013 -0.047,0.014 -0.068,0.002c-0.02,-0.013 -0.031,-0.036 -0.027,-0.06c-0.559,-3.327 0.673,-16.54 3.095,-21.351c0.003,-0.021 0.017,-0.04 0.037,-0.049c0.019,-0.01 0.042,-0.009 0.06,0.002Z" style="fill:#15325b;stroke:#15325b;stroke-width:6.25px;"/><path d="M329.374,130.187c-5.997,0.821 -12.171,5.073 -15.614,9.34c-0.018,0.01 -0.029,0.03 -0.029,0.051c0,0.021 0.012,0.041 0.03,0.053c6.07,1.813 12.314,5.913 18.71,12.012c0.021,0.013 0.048,0.014 0.068,0.002c0.02,-0.013 0.031,-0.036 0.028,-0.059c0.558,-3.328 -0.674,-16.541 -3.096,-21.352c-0.003,-0.021 -0.017,-0.04 -0.036,-0.049c-0.02,-0.01 -0.043,-0.009 -0.061,0.002Z" style="fill:#15325b;stroke:#15325b;stroke-width:6.25px;"/><path d="M206.016,192.973c1.453,-6.045 7.029,-10.553 13.678,-10.553c6.563,-0 12.08,4.391 13.619,10.317" style="fill:none;stroke:#15325b;stroke-width:6.25px;"/><path d="M311.878,193.074c-1.453,-6.046 -7.03,-10.553 -13.679,-10.553c-6.562,-0 -12.079,4.391 -13.619,10.317" style="fill:none;stroke:#15325b;stroke-width:6.25px;"/></g></g><path d="M240.845,315.446c12.04,-5.742 23.654,-5.691 34.85,0.074" style="fill:none;stroke:#15325b;stroke-width:6.25px;"/></g></svg>